<?xml version="1.0" encoding="UTF-8"?>
<svg width="24px" height="24px" viewBox="0 0 24 24" version="1.1" xmlns="http://www.w3.org/2000/svg" xmlns:xlink="http://www.w3.org/1999/xlink">
    <!-- Generator: Sketch 53.2 (72643) - https://sketchapp.com -->
    <title>attachment</title>
    <desc>Created with Sketch.</desc>
    <g id="attachment" stroke="none" stroke-width="1" fill="none" fill-rule="evenodd">
        <path d="M10.3849416,18.5 C10.292417,18.4978525 10.2022926,18.4698709 10.1245758,18.4191622 C6.93008849,16.3982171 6.20907568,14.2459106 7.85138265,11.578263 L10.5351526,7.21302161 C11.0300727,6.38757826 11.8360613,5.80040811 12.7682895,5.5861608 C13.6680254,5.38141661 14.6115061,5.54493186 15.391975,6.04087345 C16.9895119,7.10683227 17.4745873,9.25158717 16.4935224,10.9113511 L15.9127065,11.9218237 C15.381961,12.831249 14.7711029,13.8518263 14.3304839,14.4682145 C13.3891616,15.7818288 12.2275299,16.1860179 11.3262639,15.5393154 C10.853333,15.1615701 10.5485703,14.6096529 10.4790768,14.005082 C10.4095833,13.4005111 10.5810568,12.7928563 10.9557434,12.315908 L12.5579941,9.69878408 L13.4091898,10.2242298 L11.7668828,12.831249 C11.3763342,13.457742 11.2561654,14.2762247 11.8570094,14.7006232 C12.4578534,15.1250217 13.3290772,14.0943397 13.4893023,13.8720357 C13.8998791,13.2859616 14.490709,12.2350702 15.0214545,11.396378 L15.6122845,10.3859054 C16.3298252,9.1967371 15.9947402,7.64851013 14.8512154,6.86946094 C14.2939131,6.52575264 13.6262497,6.413468 12.988599,6.55621445 C12.3156225,6.70376585 11.7345814,7.12883432 11.3863483,7.72836261 L8.70257833,12.1037088 C7.70117164,13.7002554 7.2905949,15.4584776 10.6553214,17.5602605 C10.8860444,17.7112411 10.9568725,18.0194527 10.8155464,18.2574866 C10.7214468,18.4061269 10.5597168,18.497212 10.3849416,18.5 Z" id="Mask" fill="#1377D9"></path>
    </g>
</svg>