<?xml version="1.0" encoding="UTF-8"?>
<svg width="24px" height="24px" viewBox="0 0 24 24" version="1.1" xmlns="http://www.w3.org/2000/svg" xmlns:xlink="http://www.w3.org/1999/xlink">
    <!-- Generator: Sketch 53.2 (72643) - https://sketchapp.com -->
    <title>open-text</title>
    <desc>Created with Sketch.</desc>
    <g id="open-text" stroke="none" stroke-width="1" fill="none" fill-rule="evenodd">
        <path d="M21,3 L16,3 L16,2 L21.5,2 C21.7761424,2 22,2.22385763 22,2.5 L22,8 L21,8 L21,3 Z" id="Path-2" fill="#979797" fill-rule="nonzero"></path>
        <path d="M16.8701172,6 L17.0019531,8.79492188 L16.6679688,8.79492188 C16.6035153,8.30273191 16.5156256,7.95117293 16.4042969,7.74023438 C16.2226553,7.40038893 15.9809585,7.14990315 15.6791992,6.98876953 C15.3774399,6.82763591 14.9804712,6.74707031 14.4882812,6.74707031 L12.8095703,6.74707031 L12.8095703,15.8525391 C12.8095703,16.5849646 12.8886711,17.0419913 13.046875,17.2236328 C13.2695324,17.4697278 13.6123024,17.5927734 14.0751953,17.5927734 L14.4882812,17.5927734 L14.4882812,17.9179688 L9.43457031,17.9179688 L9.43457031,17.5927734 L9.85644531,17.5927734 C10.3603541,17.5927734 10.7177724,17.4404312 10.9287109,17.1357422 C11.0576178,16.9482413 11.1220703,16.5205112 11.1220703,15.8525391 L11.1220703,6.74707031 L9.68945312,6.74707031 C9.13280972,6.74707031 8.73730586,6.78808553 8.50292969,6.87011719 C8.19824066,6.98144587 7.93750108,7.19531092 7.72070312,7.51171875 C7.50390517,7.82812658 7.37500021,8.25585668 7.33398438,8.79492188 L7,8.79492188 L7.140625,6 L16.8701172,6 Z" id="T" fill="#1377D9" fill-rule="nonzero"></path>
    </g>
</svg>