<?xml version="1.0" encoding="UTF-8"?>
<svg width="24px" height="24px" viewBox="0 0 24 24" version="1.1" xmlns="http://www.w3.org/2000/svg" xmlns:xlink="http://www.w3.org/1999/xlink">
    <!-- Generator: Sketch 53.2 (72643) - https://sketchapp.com -->
    <title>open-link</title>
    <desc>Created with Sketch.</desc>
    <g id="open-link" stroke="none" stroke-width="1" fill="none" fill-rule="evenodd">
        <path d="M18,6.3 C18.543054,6.8393887 18.8943214,7.5419236 19,8.3 C19.0642875,9.05561706 18.7676682,9.79716524 18.2,10.3 L14.8,13.8 C14.2976023,14.2321399 13.6623556,14.4791803 13,14.5 L12.8,14.5 C12.0419236,14.3943214 11.3393887,14.043054 10.8,13.5 L10.6,13.3 C10.4434863,13.1826148 10.3698143,12.9847289 10.4114586,12.7935704 C10.4531028,12.6024119 10.6024119,12.4531028 10.7935704,12.4114586 C10.9847289,12.3698143 11.1826148,12.4434863 11.3,12.6 L11.5,12.8 C11.8873118,13.1664504 12.3744525,13.4100208 12.9,13.5 C13.3504453,13.4988965 13.782039,13.3190658 14.1,13 L17.5,9.6 C17.8190658,9.28203903 17.9988965,8.85044527 18,8.4 C17.9100208,7.87445254 17.6664504,7.38731185 17.3,7 L17.1,6.8 C16.7307391,6.42317147 16.2275385,6.2075141 15.7,6.2 C15.2634396,6.17401702 14.8336586,6.31727735 14.5,6.6 L12.1,9.1 C11.9055782,9.29057144 11.5944218,9.29057144 11.4,9.1 C11.1962848,8.87223948 11.1962848,8.52776052 11.4,8.3 L13.8,5.9 C14.3219934,5.36906579 15.0608435,5.11046827 15.8,5.2 C16.5587765,5.22662518 17.2768508,5.54975861 17.8,6.1 L18,6.3 Z M11.8,14.9 C11.9173852,14.7434863 12.1152711,14.6698143 12.3064296,14.7114586 C12.4975881,14.7531028 12.6468972,14.9024119 12.6885414,15.0935704 C12.7301857,15.2847289 12.6565137,15.4826148 12.5,15.6 L10,18.1 C9.56266231,18.5702719 8.94167381,18.825973 8.3,18.8 L8.1,18.8 C7.32937592,18.7368574 6.61288854,18.3786137 6.1,17.8 L5.9,17.6 C5.32702827,17.1329286 4.97061691,16.4513605 4.913921,15.7143138 C4.8572251,14.9772671 5.10520357,14.2492074 5.6,13.7 L8.7,10.6 C9.22199344,10.0690658 9.96084348,9.81046827 10.7,9.9 C11.435013,9.98752031 12.1117221,10.343683 12.6,10.9 L12.8,11.1 C12.9492951,11.2990602 12.9294994,11.5776074 12.7535534,11.7535534 C12.5776074,11.9294994 12.2990602,11.9492951 12.1,11.8 L11.9,11.6 C11.5370993,11.2545598 11.0881569,11.0128216 10.6,10.9 C10.1620378,10.8628477 9.72807841,11.0075009 9.4,11.3 L6.3,14.4 C5.70352983,15.1762617 5.83680618,16.286898 6.6,16.9 L6.8,17.1 C7.18731185,17.4664504 7.67445254,17.7100208 8.2,17.8 C8.60570504,17.8211282 9.00262958,17.676792 9.3,17.4 L11.8,14.9 Z" id="Mask" fill="#1377D9"></path>
        <path d="M21,3 L16,3 L16,2 L21.5,2 C21.7761424,2 22,2.22385763 22,2.5 L22,8 L21,8 L21,3 Z" id="Path-2" fill="#979797" fill-rule="nonzero"></path>
    </g>
</svg>