<?xml version="1.0" encoding="UTF-8"?>
<svg width="24px" height="24px" viewBox="0 0 24 24" version="1.1" xmlns="http://www.w3.org/2000/svg" xmlns:xlink="http://www.w3.org/1999/xlink">
    <!-- Generator: Sketch 53.2 (72643) - https://sketchapp.com -->
    <title>open-subprocess</title>
    <desc>Created with Sketch.</desc>
    <g id="open-subprocess" stroke="none" stroke-width="1" fill="none" fill-rule="evenodd">
        <path d="M21,3 L16,3 L16,2 L21.5,2 C21.7761424,2 22,2.22385763 22,2.5 L22,8 L21,8 L21,3 Z" id="Path-2" fill="#979797" fill-rule="nonzero"></path>
        <path d="M18,6 L10,6 L10,5 L18.5,5 C18.7761424,5 19,5.22385763 19,5.5 L19,14 L18,14 L18,6 Z" id="Path-2" fill="#1377D9" fill-rule="nonzero"></path>
        <path d="M16,8 L8,8 L8,7 L16.5,7 C16.7761424,7 17,7.22385763 17,7.5 L17,16 L16,16 L16,8 Z" id="Path-2-Copy" fill="#1377D9" fill-rule="nonzero"></path>
        <rect id="Rectangle" stroke="#1377D9" x="5.5" y="9.5" width="9" height="9" rx="1"></rect>
    </g>
</svg>