<?xml version="1.0" encoding="UTF-8"?>
<svg width="24px" height="24px" viewBox="0 0 24 24" version="1.1" xmlns="http://www.w3.org/2000/svg" xmlns:xlink="http://www.w3.org/1999/xlink">
    <!-- Generator: Sketch 53.2 (72643) - https://sketchapp.com -->
    <title>open-image</title>
    <desc>Created with Sketch.</desc>
    <g id="open-image" stroke="none" stroke-width="1" fill="none" fill-rule="evenodd">
        <path d="M18,5 C18.5522847,5 19,5.44771525 19,6 L19,18 C19,18.5522847 18.5522847,19 18,19 L6,19 C5.44771525,19 5,18.5522847 5,18 L5,6 C5,5.44771525 5.44771525,5 6,5 L18,5 Z M18,6 L6,6 L6,17.37 L14,10.37 L18,13.37 L18,6 Z M18,18.5 L18,18 L18,14.49 C17.8927498,14.4943876 17.7871239,14.4626998 17.7,14.4 L14,11.64 L6.76,18 L18,18 L18,18.5 Z M9,10 C8.44771525,10 8,9.55228475 8,9 C8,8.44771525 8.44771525,8 9,8 C9.55228475,8 10,8.44771525 10,9 C10,9.55228475 9.55228475,10 9,10 Z" id="Mask" fill="#1377D9"></path>
        <path d="M21,3 L16,3 L16,2 L21.5,2 C21.7761424,2 22,2.22385763 22,2.5 L22,8 L21,8 L21,3 Z" id="Path-2" fill="#979797" fill-rule="nonzero"></path>
    </g>
</svg>